<svg width="32" height="32" viewBox="0 0 32 32" fill="none" xmlns="http://www.w3.org/2000/svg">
<g clip-path="url(#clip0_2168_112)">
<path d="M11.6028 15.206L11.594 11.9491C11.5916 10.5104 11.3812 8.87143 13.3783 8.78971C13.9261 8.7673 15.385 9.68596 15.9143 9.99499L18.3212 11.3926L19.9233 12.294C20.4711 12.5963 21.4271 13.0842 21.8599 13.5024C22.1247 13.7581 22.3917 14.4613 22.3464 14.8538C22.2968 15.2829 22.1651 15.7916 21.8066 16.0732C21.2138 16.5389 20.4115 16.9288 19.7524 17.3104L17.9641 18.3412C17.6663 18.5125 17.2785 18.7539 16.9785 18.8997C16.9216 18.9409 16.6891 19.0819 16.6253 19.1026C16.2626 19.3571 15.781 19.599 15.3946 19.8294C14.3803 20.4341 13.1551 21.3065 12.0968 20.2178C11.8787 19.9921 11.7263 19.7111 11.6562 19.4051C11.5583 18.9929 11.5805 18.1936 11.5818 17.7371L11.5991 15.4056L11.6028 15.206Z" fill="#A8F173"/>
<path d="M11.5991 15.4056C11.6793 15.3752 11.8338 15.3965 11.8971 15.4333C12.8091 15.9639 13.6218 16.7461 14.4558 17.3832C15.0356 17.8261 15.5436 18.1889 16.0997 18.647C16.3337 18.8398 16.2397 18.8843 16.4114 19.0828C16.4329 19.1076 16.5663 19.0989 16.6253 19.1026C16.2626 19.3571 15.781 19.599 15.3946 19.8294C14.3803 20.4341 13.1551 21.3065 12.0968 20.2178C11.8787 19.9921 11.7263 19.7111 11.6562 19.4051C11.5583 18.9929 11.5805 18.1936 11.5818 17.7371L11.5991 15.4056Z" fill="#A8F173"/>
<path d="M11.6028 15.206C11.6778 14.9459 11.5854 14.5241 11.6498 14.3337L11.6732 14.4534C11.7842 14.49 11.8136 14.4856 11.9289 14.4829C12.3957 14.7918 12.8648 15.0933 13.3178 15.4226C13.8339 15.7977 16.8746 18.1176 16.9604 18.5733C16.9804 18.6799 16.9903 18.7917 16.9785 18.8997C16.9216 18.9409 16.6891 19.0819 16.6253 19.1026C16.5663 19.0989 16.4329 19.1076 16.4114 19.0828C16.2397 18.8843 16.3337 18.8398 16.0997 18.647C15.5436 18.1889 15.0356 17.8261 14.4558 17.3832C13.6218 16.7461 12.8091 15.9639 11.8971 15.4333C11.8338 15.3965 11.6793 15.3752 11.5991 15.4056L11.6028 15.206Z" fill="#A8F173"/>
<path d="M26.9191 11.8481C26.9309 11.8357 26.9589 11.8054 26.9648 11.789C26.9999 11.6924 26.9614 11.6672 26.9317 11.5815C26.7753 11.1306 26.6581 10.7623 26.4819 10.3039C26.3739 10.0227 26.1745 9.56644 26.0439 9.2761L25.9206 9.1991C25.8914 9.12316 25.8171 8.9245 25.7774 8.86338C25.5474 8.50844 25.2963 7.96632 24.9847 7.69532C24.9261 7.64435 24.8672 7.5636 24.8632 7.48713C24.9924 7.5546 25.0686 7.71166 25.2011 7.807C25.2151 7.72397 24.992 7.24822 24.9166 7.22866C24.7701 7.19063 24.5312 6.95469 24.6158 6.80475C24.7409 6.80991 24.7842 6.82644 24.9043 6.86391L24.9439 6.8321C24.9661 6.7265 24.9835 6.67379 24.9649 6.56704C24.9062 6.5185 24.8877 6.51172 24.8661 6.44266C24.8943 6.3745 24.9274 6.309 24.9163 6.23357C24.9123 6.20622 24.907 6.18529 24.9096 6.15732C24.9311 5.91732 25.7006 6.16575 26.0858 5.83791L26.0909 5.7676C26.0505 5.74303 25.9148 5.66475 25.9292 5.62088C25.9758 5.47869 25.8894 5.46622 25.8212 5.32372C25.9904 5.15941 26.0914 5.22382 26.071 4.96372L26.111 4.94775C26.6934 5.53344 27.3208 6.39029 27.7712 7.08172C28.0978 7.5871 28.3891 8.11438 28.6432 8.65982C28.6739 8.72569 28.9023 9.30272 28.8799 9.28347C29.0928 9.4661 29.2429 10.4401 29.4133 10.5584C29.6794 11.2436 29.7575 11.7518 29.8733 12.46C30.3462 15.1831 30.0113 17.9851 28.91 20.5201C28.7496 20.8841 27.9815 22.4538 27.7525 22.6576C27.5796 23.013 27.0438 23.6811 26.7836 23.9935C25.1197 26.0278 22.9284 27.5652 20.4494 28.4378C18.0853 29.256 15.5159 29.4165 13.0762 28.8605C12.4587 28.7198 12.2034 28.9976 11.6721 29.3L9.0666 30.7882C8.84107 30.9152 8.12816 31.3384 7.9086 31.3953C7.72566 31.5893 6.95957 31.6559 6.68704 31.6234C6.03607 31.5459 5.4922 31.2458 5.08035 30.7365C4.70079 30.2649 4.52607 29.6609 4.59529 29.0595C4.61307 28.7498 4.84057 28.0187 4.93466 27.679L5.76963 24.7623C5.60263 24.4847 5.02145 23.8092 4.7782 23.4813C3.97435 22.4158 3.32123 21.2445 2.8372 20.0007C1.48618 16.4526 1.5216 12.3778 3.08151 8.90294L3.12838 8.91497C3.10706 8.97644 3.07997 9.04257 3.07246 9.10625C3.15485 9.14607 3.23223 9.17216 3.30891 9.20966L3.31654 9.19744C3.3507 9.14363 3.36873 9.1231 3.41145 9.07625L3.46573 9.07513C3.46854 9.12794 3.46498 9.35182 3.4796 9.37504C3.85013 9.96385 4.15301 10.6362 4.53385 11.2133C4.5896 11.2991 4.65579 11.3776 4.73098 11.447C4.78088 11.4927 4.81195 11.5128 4.87795 11.5328C4.9637 11.4621 5.11066 11.3577 5.15351 11.2629L5.21938 11.2507C4.28379 14.4916 4.49516 17.5688 6.14345 20.5282C6.65707 21.4504 7.3106 22.2081 7.99154 23.0031C8.33829 23.4079 8.58904 24.2598 8.55729 24.7935C8.42045 26.0324 7.87591 27.294 7.5832 28.4996C8.22291 28.0798 8.90607 27.6988 9.57323 27.3257C10.3486 26.8947 11.0794 26.359 11.948 26.1317C12.6153 25.9572 13.2104 26.0601 13.8687 26.2011C16.9824 26.8686 20.2658 25.9955 22.7139 23.9816C22.8856 23.8403 23.1285 23.6773 23.3151 23.535C23.6338 23.292 24.1239 22.6215 24.4142 22.4371C24.8092 21.8797 25.279 21.3339 25.6332 20.743C26.8304 18.7462 27.405 16.3254 27.2652 14.0023C27.2232 13.3044 27.0677 12.5153 26.9191 11.8481Z" fill="#A8F173"/>
<path d="M26.9191 11.8481C26.9309 11.8357 26.9589 11.8054 26.9648 11.789C26.9999 11.6924 26.9614 11.6672 26.9317 11.5815C26.7753 11.1306 26.6581 10.7623 26.4819 10.3039C26.3739 10.0227 26.1745 9.56644 26.0439 9.2761L25.9206 9.1991C25.8914 9.12316 25.8171 8.9245 25.7774 8.86338C25.5474 8.50844 25.2963 7.96632 24.9847 7.69532C24.9261 7.64435 24.8672 7.5636 24.8632 7.48713C24.9924 7.5546 25.0686 7.71166 25.2011 7.807C25.2151 7.72397 24.992 7.24822 24.9166 7.22866C24.7701 7.19063 24.5312 6.95469 24.6158 6.80475C24.7409 6.80991 24.7842 6.82644 24.9043 6.86391L24.9439 6.8321C24.9661 6.7265 24.9835 6.67379 24.9649 6.56704C24.9062 6.5185 24.8877 6.51172 24.8661 6.44266C24.8943 6.3745 24.9274 6.309 24.9163 6.23357C24.9123 6.20622 24.907 6.18529 24.9096 6.15732C24.9311 5.91732 25.7006 6.16575 26.0858 5.83791L26.0909 5.7676C26.0505 5.74303 25.9148 5.66475 25.9292 5.62088C25.9758 5.47869 25.8894 5.46622 25.8212 5.32372C25.9904 5.15941 26.0914 5.22382 26.071 4.96372L26.111 4.94775C26.6934 5.53344 27.3208 6.39029 27.7712 7.08172C28.0978 7.5871 28.3891 8.11438 28.6432 8.65982C28.6739 8.72569 28.9023 9.30272 28.8799 9.28347C29.0928 9.4661 29.2429 10.4401 29.4133 10.5584C29.6794 11.2436 29.7575 11.7518 29.8733 12.46C30.3462 15.1831 30.0113 17.9851 28.91 20.5201C28.7496 20.8841 27.9815 22.4538 27.7525 22.6576C27.7282 22.6632 27.6987 22.6701 27.6641 22.6782C27.5132 22.8914 27.3672 23.1103 27.2135 23.3214C26.9349 23.7044 26.6198 24.062 26.3165 24.4255C26.257 24.4969 26.1897 24.5771 26.1257 24.6443C24.974 25.8517 23.6391 26.881 22.1448 27.6296C21.485 27.9602 20.7938 28.2667 20.0825 28.4682C19.965 28.4717 19.7268 28.3999 19.6284 28.3459C19.3637 28.2005 19.1153 28.1795 18.8178 28.1352C18.1774 28.0399 17.521 28.0109 16.876 27.9385C15.9242 27.8317 14.9999 27.5984 14.0764 27.3511C13.5113 27.2171 12.9567 27.0592 12.4463 26.7717C12.2397 26.6553 11.9508 26.3382 11.6769 26.4793L11.6634 26.4679C11.7212 26.4015 11.7271 26.4158 11.7384 26.3428L11.7049 26.3043C11.6346 26.3277 11.6236 26.3301 11.5496 26.3303L11.5921 26.2964C11.6541 26.29 11.6956 26.2846 11.7547 26.2566C11.9508 26.1637 12.1206 26.2166 12.3516 26.1454C12.8178 26.0017 13.6752 26.2889 14.1466 26.3387C14.4808 26.374 15.0587 26.4787 15.3406 26.4878C16.0545 26.511 17.1413 26.468 17.8462 26.3373C18.953 26.132 20.1891 25.682 21.1781 25.1438C21.3333 25.0942 21.5824 24.8229 21.7023 24.7802C22.3116 24.5634 22.6227 24.0233 23.2112 23.7578C23.291 23.7218 23.5404 23.4069 23.6297 23.3377C23.9301 23.1048 24.2299 22.8012 24.4408 22.4856L24.4142 22.4371C24.8092 21.8797 25.279 21.3339 25.6332 20.743C26.8304 18.7462 27.405 16.3254 27.2652 14.0023C27.2232 13.3044 27.0677 12.5153 26.9191 11.8481Z" fill="#A8F173"/>
<path d="M4.59529 29.0595C4.73641 29.1785 4.65932 29.1535 4.71404 29.3211C4.89516 29.8764 5.01123 29.8957 5.45926 30.1398C5.81785 30.3351 6.32332 30.609 6.59716 30.8915L6.63344 30.888C6.65691 30.7178 6.60248 30.7492 6.69763 30.6657L6.80623 30.6556C6.8346 30.6872 6.89366 30.7512 6.91079 30.7883C6.9851 30.9493 7.45994 31.0163 7.51741 31.1284L7.45598 31.2296L7.47379 31.286L7.56526 31.2358L7.81504 31.3829L7.86051 31.3641L7.9086 31.3953C7.72566 31.5893 6.95957 31.6559 6.68704 31.6234C6.03607 31.5459 5.4922 31.2458 5.08035 30.7365C4.70079 30.2649 4.52607 29.6609 4.59529 29.0595Z" fill="#A8F173"/>
<path d="M3.08151 8.90294C3.3717 8.15747 3.86718 7.30266 4.30715 6.63472C8.38343 0.445818 16.8972 -1.41328 23.2032 2.46734C25.7426 4.02222 27.7327 6.33175 28.8952 9.07306C29.0352 9.39512 29.3569 10.2329 29.4133 10.5584C29.2429 10.4401 29.0928 9.4661 28.8799 9.28347C28.9023 9.30272 28.6739 8.72569 28.6432 8.65982C28.3891 8.11438 28.0978 7.5871 27.7712 7.08172C27.3208 6.39029 26.6934 5.53344 26.111 4.94775L26.071 4.96372C26.0914 5.22382 25.9904 5.15941 25.8212 5.32372C25.8894 5.46622 25.9758 5.47869 25.9292 5.62088C25.9148 5.66475 26.0505 5.74303 26.0909 5.7676L26.0858 5.83791C25.7006 6.16575 24.9311 5.91732 24.9096 6.15732C24.907 6.18529 24.9123 6.20622 24.9163 6.23357C24.9274 6.309 24.8943 6.3745 24.8661 6.44266C24.8877 6.51172 24.9062 6.5185 24.9649 6.56704C24.9835 6.67379 24.9661 6.7265 24.9439 6.8321L24.9043 6.86391C24.7842 6.82644 24.7409 6.80991 24.6158 6.80475C24.5312 6.95469 24.7701 7.19063 24.9166 7.22866C24.992 7.24822 25.2151 7.72397 25.2011 7.807C25.0686 7.71166 24.9924 7.5546 24.8632 7.48713C24.8672 7.5636 24.9261 7.64435 24.9847 7.69532C25.2963 7.96632 25.5474 8.50844 25.7774 8.86338C25.8171 8.9245 25.8914 9.12316 25.9206 9.1991L26.0439 9.2761C26.1745 9.56644 26.3739 10.0227 26.4819 10.3039C26.6581 10.7623 26.7753 11.1306 26.9317 11.5815C26.9614 11.6672 26.9999 11.6924 26.9648 11.789C26.9589 11.8054 26.9309 11.8357 26.9191 11.8481C26.6344 11.061 26.5666 10.6637 26.1736 9.82887C24.8871 7.03769 22.5333 4.88028 19.6409 3.84122C16.8773 2.844 13.8278 3.00721 11.1865 4.29372C8.55978 5.54381 6.49825 7.87747 5.4534 10.5889C5.37028 10.8046 5.29751 11.0319 5.21938 11.2507L5.15351 11.2629C5.11066 11.3577 4.9637 11.4621 4.87795 11.5328C4.81195 11.5128 4.78088 11.4927 4.73098 11.447C4.65579 11.3776 4.5896 11.2991 4.53385 11.2133C4.15301 10.6362 3.85013 9.96385 3.4796 9.37504C3.46498 9.35182 3.46854 9.12794 3.46573 9.07513L3.41145 9.07625C3.36873 9.1231 3.3507 9.14363 3.31654 9.19744L3.30891 9.20966C3.23223 9.17216 3.15485 9.14607 3.07246 9.10625C3.07997 9.04257 3.10706 8.97644 3.12838 8.91497L3.08151 8.90294Z" fill="#A8F173"/>
</g>
<defs>
<clipPath id="clip0_2168_112">
<rect width="32" height="32" fill="white"/>
</clipPath>
</defs>
</svg>
